<svg width="210" height="210" viewBox="0 0 210 210" fill="none" xmlns="http://www.w3.org/2000/svg">
<path d="M105 209C162.438 209 209 162.438 209 105C209 47.5624 162.438 1 105 1C47.5624 1 1 47.5624 1 105C1 162.438 47.5624 209 105 209Z" fill="white" stroke="black" stroke-miterlimit="10"/>
<mask id="mask0_263_733" style="mask-type:luminance" maskUnits="userSpaceOnUse" x="1" y="1" width="208" height="208">
<path d="M105 209C162.438 209 209 162.438 209 105C209 47.5624 162.438 1 105 1C47.5624 1 1 47.5624 1 105C1 162.438 47.5624 209 105 209Z" fill="white"/>
</mask>
<g mask="url(#mask0_263_733)">
<path d="M105 243.469V-152.033" stroke="black" stroke-miterlimit="10"/>
<path d="M138.905 220.663L37.1699 -110.081" stroke="black" stroke-miterlimit="10"/>
<path d="M172.799 197.869L-30.6611 -68.1169" stroke="black" stroke-miterlimit="10"/>
<path d="M206.693 175.064L-98.4917 -26.1641" stroke="black" stroke-miterlimit="10"/>
<path d="M240.598 152.269L-166.322 15.7998" stroke="black" stroke-miterlimit="10"/>
<path d="M274.492 129.464L-234.153 57.7527" stroke="black" stroke-miterlimit="10"/>
<path d="M308.386 106.669L-301.984 99.7056" stroke="black" stroke-miterlimit="10"/>
</g>
<path fill-rule="evenodd" clip-rule="evenodd" d="M131.534 60.8371C131.385 63.6229 130.775 66.2746 129.781 68.722C129.745 69.1642 129.608 69.6102 129.353 70.0303L107.312 106.408C106.071 108.457 103.047 108.295 102.03 106.126L83.9841 67.6104C83.7756 67.1653 83.6863 66.7069 83.6974 66.263C82.9699 63.7241 82.6453 61.0228 82.7939 58.2374C83.5118 44.7782 95.0045 34.4494 108.464 35.1673C121.923 35.8852 132.252 47.3779 131.534 60.8371ZM106.778 72.8767C114.315 73.2787 120.751 67.4946 121.153 59.9575C121.555 52.4203 115.771 45.9844 108.234 45.5824C100.697 45.1804 94.2611 50.9645 93.8591 58.5016C93.4571 66.0388 99.2412 72.4747 106.778 72.8767Z" fill="#5900E7"/>
</svg>
